<svg id="SvgjsSvg1555" width="1026.28125" height="848.015625" xmlns="http://www.w3.org/2000/svg" version="1.1" xmlns:xlink="http://www.w3.org/1999/xlink" xmlns:svgjs="http://svgjs.com/svgjs"><defs id="SvgjsDefs1556"><linearGradient id="SvgjsLinearGradient1559" x1="1" y1="0" x2="0" y2="1"><stop id="SvgjsStop1560" stop-opacity="1" stop-color="#ffffff" offset="0"></stop><stop id="SvgjsStop1561" stop-opacity="1" stop-color="#66b2ff" offset="1"></stop></linearGradient><linearGradient id="SvgjsLinearGradient1574" x1="1" y1="0" x2="0" y2="1"><stop id="SvgjsStop1575" stop-opacity="1" stop-color="#ffffff" offset="0"></stop><stop id="SvgjsStop1576" stop-opacity="1" stop-color="#66b2ff" offset="1"></stop></linearGradient><linearGradient id="SvgjsLinearGradient1589" x1="1" y1="0" x2="0" y2="1"><stop id="SvgjsStop1590" stop-opacity="1" stop-color="#ffffff" offset="0"></stop><stop id="SvgjsStop1591" stop-opacity="1" stop-color="#66b2ff" offset="1"></stop></linearGradient><linearGradient id="SvgjsLinearGradient1604" x1="1" y1="0" x2="0" y2="1"><stop id="SvgjsStop1605" stop-opacity="1" stop-color="#ffffff" offset="0"></stop><stop id="SvgjsStop1606" stop-opacity="1" stop-color="#66b2ff" offset="1"></stop></linearGradient><marker id="SvgjsMarker1619" markerWidth="16" markerHeight="16" refX="11" refY="8" viewBox="0 0 16 16" orient="auto" markerUnits="userSpaceOnUse" stroke-dasharray="0,0"><path id="SvgjsPath1620" d="M0,0 L10,8 L0,16" fill="none" stroke="#323232" stroke-width="2"></path></marker><marker id="SvgjsMarker1623" markerWidth="16" markerHeight="16" refX="11" refY="8" viewBox="0 0 16 16" orient="auto" markerUnits="userSpaceOnUse" stroke-dasharray="0,0"><path id="SvgjsPath1624" d="M0,0 L10,8 L0,16" fill="none" stroke="#323232" stroke-width="2"></path></marker><marker id="SvgjsMarker1627" markerWidth="16" markerHeight="16" refX="11" refY="8" viewBox="0 0 16 16" orient="auto" markerUnits="userSpaceOnUse" stroke-dasharray="0,0"><path id="SvgjsPath1628" d="M0,0 L10,8 L0,16" fill="none" stroke="#000000" stroke-width="2"></path></marker><linearGradient id="SvgjsLinearGradient1631" x1="1" y1="0" x2="0" y2="1"><stop id="SvgjsStop1632" stop-opacity="1" stop-color="#ffffff" offset="0"></stop><stop id="SvgjsStop1633" stop-opacity="1" stop-color="#66b2ff" offset="1"></stop></linearGradient><marker id="SvgjsMarker1646" markerWidth="14" markerHeight="12" refX="16" refY="6" viewBox="0 0 14 12" orient="auto" markerUnits="userSpaceOnUse" stroke-dasharray="0,0"><path id="SvgjsPath1647" d="M1,1 L14,6 L1,11L1,1" fill="#ffffff" stroke="#000000" stroke-width="2"></path></marker><linearGradient id="SvgjsLinearGradient1650" x1="1" y1="0" x2="0" y2="1"><stop id="SvgjsStop1651" stop-opacity="1" stop-color="#ffffff" offset="0"></stop><stop id="SvgjsStop1652" stop-opacity="1" stop-color="#66b2ff" offset="1"></stop></linearGradient><marker id="SvgjsMarker1665" markerWidth="14" markerHeight="12" refX="16" refY="6" viewBox="0 0 14 12" orient="auto" markerUnits="userSpaceOnUse" stroke-dasharray="0,0"><path id="SvgjsPath1666" d="M1,1 L14,6 L1,11L1,1" fill="#ffffff" stroke="#323232" stroke-width="2"></path></marker><marker id="SvgjsMarker1669" markerWidth="16" markerHeight="16" refX="11" refY="8" viewBox="0 0 16 16" orient="auto" markerUnits="userSpaceOnUse" stroke-dasharray="0,0"><path id="SvgjsPath1670" d="M0,0 L10,8 L0,16" fill="none" stroke="#323232" stroke-width="2"></path></marker><linearGradient id="SvgjsLinearGradient1673" x1="1" y1="0" x2="0" y2="1"><stop id="SvgjsStop1674" stop-opacity="1" stop-color="#ffffff" offset="0"></stop><stop id="SvgjsStop1675" stop-opacity="1" stop-color="#66b2ff" offset="1"></stop></linearGradient><marker id="SvgjsMarker1688" markerWidth="14" markerHeight="12" refX="16" refY="6" viewBox="0 0 14 12" orient="auto" markerUnits="userSpaceOnUse" stroke-dasharray="0,0"><path id="SvgjsPath1689" d="M1,1 L14,6 L1,11L1,1" fill="#ffffff" stroke="#323232" stroke-width="2"></path></marker><linearGradient id="SvgjsLinearGradient1692" x1="1" y1="0" x2="0" y2="1"><stop id="SvgjsStop1693" stop-opacity="1" stop-color="#ffffff" offset="0"></stop><stop id="SvgjsStop1694" stop-opacity="1" stop-color="#66b2ff" offset="1"></stop></linearGradient><marker id="SvgjsMarker1709" markerWidth="14" markerHeight="12" refX="16" refY="6" viewBox="0 0 14 12" orient="auto" markerUnits="userSpaceOnUse" stroke-dasharray="0,0"><path id="SvgjsPath1710" d="M1,1 L14,6 L1,11L1,1" fill="#ffffff" stroke="#323232" stroke-width="2"></path></marker><marker id="SvgjsMarker1713" markerWidth="16" markerHeight="16" refX="11" refY="8" viewBox="0 0 16 16" orient="auto" markerUnits="userSpaceOnUse" stroke-dasharray="0,0"><path id="SvgjsPath1714" d="M0,0 L10,8 L0,16" fill="none" stroke="#323232" stroke-width="2"></path></marker><linearGradient id="SvgjsLinearGradient1717" x1="1" y1="0" x2="0" y2="1"><stop id="SvgjsStop1718" stop-opacity="1" stop-color="#ffffff" offset="0"></stop><stop id="SvgjsStop1719" stop-opacity="1" stop-color="#66b2ff" offset="1"></stop></linearGradient><marker id="SvgjsMarker1734" markerWidth="14" markerHeight="12" refX="16" refY="6" viewBox="0 0 14 12" orient="auto" markerUnits="userSpaceOnUse" stroke-dasharray="0,0"><path id="SvgjsPath1735" d="M1,1 L14,6 L1,11L1,1" fill="#ffffff" stroke="#323232" stroke-width="2"></path></marker><linearGradient id="SvgjsLinearGradient1738" x1="1" y1="0" x2="0" y2="1"><stop id="SvgjsStop1739" stop-opacity="1" stop-color="#ffffff" offset="0"></stop><stop id="SvgjsStop1740" stop-opacity="1" stop-color="#66b2ff" offset="1"></stop></linearGradient><marker id="SvgjsMarker1755" markerWidth="16" markerHeight="16" refX="11" refY="8" viewBox="0 0 16 16" orient="auto" markerUnits="userSpaceOnUse" stroke-dasharray="0,0"><path id="SvgjsPath1756" d="M0,0 L10,8 L0,16" fill="none" stroke="#323232" stroke-width="2"></path></marker><marker id="SvgjsMarker1759" markerWidth="14" markerHeight="12" refX="16" refY="6" viewBox="0 0 14 12" orient="auto" markerUnits="userSpaceOnUse" stroke-dasharray="0,0"><path id="SvgjsPath1760" d="M1,1 L14,6 L1,11L1,1" fill="#ffffff" stroke="#323232" stroke-width="2"></path></marker><linearGradient id="SvgjsLinearGradient1763" x1="1" y1="0" x2="0" y2="1"><stop id="SvgjsStop1764" stop-opacity="1" stop-color="#ffffff" offset="0"></stop><stop id="SvgjsStop1765" stop-opacity="1" stop-color="#66b2ff" offset="1"></stop></linearGradient><marker id="SvgjsMarker1778" markerWidth="16" markerHeight="16" refX="11" refY="8" viewBox="0 0 16 16" orient="auto" markerUnits="userSpaceOnUse" stroke-dasharray="0,0"><path id="SvgjsPath1779" d="M0,0 L10,8 L0,16" fill="none" stroke="#323232" stroke-width="2"></path></marker></defs><g id="SvgjsG1557" transform="translate(25.011821905772393,25.00996887895502)"><path id="SvgjsPath1558" d="M 0 4Q 0 0 4 0L 121.40711057466115 0Q 125.40711057466115 0 125.40711057466115 4L 125.40711057466115 65.545332180103Q 125.40711057466115 69.545332180103 121.40711057466115 69.545332180103L 4 69.545332180103Q 0 69.545332180103 0 65.545332180103Z" stroke="rgba(50,50,50,1)" stroke-width="2" fill="url(#SvgjsLinearGradient1559)"></path><path id="SvgjsPath1562" d="M 0 30L 125.40711057466115 30M 0 60L 125.40711057466115 60" stroke="rgba(50,50,50,1)" stroke-width="2" fill="none"></path><path id="SvgjsPath1563" d="M 0 0L 125.40711057466115 0L 125.40711057466115 69.545332180103L 0 69.545332180103Z" stroke="none" fill="none"></path><g id="SvgjsG1564"><text id="SvgjsText1565" font-family="微软雅黑" text-anchor="middle" font-size="12px" width="106px" fill="#323232" font-weight="700" align="middle" lineHeight="125%" anchor="middle" family="微软雅黑" size="12px" weight="700" font-style="" opacity="1" y="5" transform="rotate(0)"><tspan id="SvgjsTspan1566" dy="15" x="63"><tspan id="SvgjsTspan1567" style="text-decoration:;">Doc2Docx</tspan></tspan></text></g><g id="SvgjsG1568"><text id="SvgjsText1569" font-family="微软雅黑" text-anchor="start" font-size="12px" width="106px" fill="#323232" font-weight="400" align="middle" lineHeight="125%" anchor="start" family="微软雅黑" size="12px" weight="400" font-style="" opacity="1" y="38" transform="rotate(0)"></text></g><g id="SvgjsG1570"><text id="SvgjsText1571" font-family="微软雅黑" text-anchor="start" font-size="12px" width="106px" fill="#323232" font-weight="400" align="middle" lineHeight="125%" anchor="start" family="微软雅黑" size="12px" weight="400" font-style="" opacity="1" y="65" transform="rotate(0)"></text></g></g><g id="SvgjsG1572" transform="translate(205.01182190577236,25.009968878955135)"><path id="SvgjsPath1573" d="M 0 4Q 0 0 4 0L 121.40711057466115 0Q 125.40711057466115 0 125.40711057466115 4L 125.40711057466115 65.545332180103Q 125.40711057466115 69.545332180103 121.40711057466115 69.545332180103L 4 69.545332180103Q 0 69.545332180103 0 65.545332180103Z" stroke="rgba(50,50,50,1)" stroke-width="2" fill="url(#SvgjsLinearGradient1574)"></path><path id="SvgjsPath1577" d="M 0 30L 125.40711057466115 30M 0 60L 125.40711057466115 60" stroke="rgba(50,50,50,1)" stroke-width="2" fill="none"></path><path id="SvgjsPath1578" d="M 0 0L 125.40711057466115 0L 125.40711057466115 69.545332180103L 0 69.545332180103Z" stroke="none" fill="none"></path><g id="SvgjsG1579"><text id="SvgjsText1580" font-family="微软雅黑" text-anchor="middle" font-size="12px" width="106px" fill="#323232" font-weight="700" align="middle" lineHeight="125%" anchor="middle" family="微软雅黑" size="12px" weight="700" font-style="" opacity="1" y="5" transform="rotate(0)"><tspan id="SvgjsTspan1581" dy="15" x="63"><tspan id="SvgjsTspan1582" style="text-decoration:;">FileManager</tspan></tspan></text></g><g id="SvgjsG1583"><text id="SvgjsText1584" font-family="微软雅黑" text-anchor="start" font-size="12px" width="106px" fill="#323232" font-weight="400" align="middle" lineHeight="125%" anchor="start" family="微软雅黑" size="12px" weight="400" font-style="" opacity="1" y="38" transform="rotate(0)"></text></g><g id="SvgjsG1585"><text id="SvgjsText1586" font-family="微软雅黑" text-anchor="start" font-size="12px" width="106px" fill="#323232" font-weight="400" align="middle" lineHeight="125%" anchor="start" family="微软雅黑" size="12px" weight="400" font-style="" opacity="1" y="65" transform="rotate(0)"></text></g></g><g id="SvgjsG1587" transform="translate(502.1974631335254,25.009968878955135)"><path id="SvgjsPath1588" d="M 0 4Q 0 0 4 0L 121.40711057466115 0Q 125.40711057466115 0 125.40711057466115 4L 125.40711057466115 65.545332180103Q 125.40711057466115 69.545332180103 121.40711057466115 69.545332180103L 4 69.545332180103Q 0 69.545332180103 0 65.545332180103Z" stroke="rgba(50,50,50,1)" stroke-width="2" fill="url(#SvgjsLinearGradient1589)"></path><path id="SvgjsPath1592" d="M 0 30L 125.40711057466115 30M 0 60L 125.40711057466115 60" stroke="rgba(50,50,50,1)" stroke-width="2" fill="none"></path><path id="SvgjsPath1593" d="M 0 0L 125.40711057466115 0L 125.40711057466115 69.545332180103L 0 69.545332180103Z" stroke="none" fill="none"></path><g id="SvgjsG1594"><text id="SvgjsText1595" font-family="微软雅黑" text-anchor="middle" font-size="12px" width="106px" fill="#323232" font-weight="700" align="middle" lineHeight="125%" anchor="middle" family="微软雅黑" size="12px" weight="700" font-style="" opacity="1" y="5" transform="rotate(0)"><tspan id="SvgjsTspan1596" dy="15" x="63"><tspan id="SvgjsTspan1597" style="text-decoration:;">DocxManager</tspan></tspan></text></g><g id="SvgjsG1598"><text id="SvgjsText1599" font-family="微软雅黑" text-anchor="start" font-size="12px" width="106px" fill="#323232" font-weight="400" align="middle" lineHeight="125%" anchor="start" family="微软雅黑" size="12px" weight="400" font-style="" opacity="1" y="38" transform="rotate(0)"></text></g><g id="SvgjsG1600"><text id="SvgjsText1601" font-family="微软雅黑" text-anchor="start" font-size="12px" width="106px" fill="#323232" font-weight="400" align="middle" lineHeight="125%" anchor="start" family="微软雅黑" size="12px" weight="400" font-style="" opacity="1" y="65" transform="rotate(0)"></text></g></g><g id="SvgjsG1602" transform="translate(109.66926891865069,291.6930747981752)"><path id="SvgjsPath1603" d="M 0 4Q 0 0 4 0L 121.40711057466115 0Q 125.40711057466115 0 125.40711057466115 4L 125.40711057466115 65.545332180103Q 125.40711057466115 69.545332180103 121.40711057466115 69.545332180103L 4 69.545332180103Q 0 69.545332180103 0 65.545332180103Z" stroke="rgba(50,50,50,1)" stroke-width="2" fill="url(#SvgjsLinearGradient1604)"></path><path id="SvgjsPath1607" d="M 0 30L 125.40711057466115 30M 0 60L 125.40711057466115 60" stroke="rgba(50,50,50,1)" stroke-width="2" fill="none"></path><path id="SvgjsPath1608" d="M 0 0L 125.40711057466115 0L 125.40711057466115 69.545332180103L 0 69.545332180103Z" stroke="none" fill="none"></path><g id="SvgjsG1609"><text id="SvgjsText1610" font-family="微软雅黑" text-anchor="middle" font-size="12px" width="106px" fill="#323232" font-weight="700" align="middle" lineHeight="125%" anchor="middle" family="微软雅黑" size="12px" weight="700" font-style="" opacity="1" y="5" transform="rotate(0)"><tspan id="SvgjsTspan1611" dy="15" x="63"><tspan id="SvgjsTspan1612" style="text-decoration:;">Manager</tspan></tspan></text></g><g id="SvgjsG1613"><text id="SvgjsText1614" font-family="微软雅黑" text-anchor="start" font-size="12px" width="106px" fill="#323232" font-weight="400" align="middle" lineHeight="125%" anchor="start" family="微软雅黑" size="12px" weight="400" font-style="" opacity="1" y="38" transform="rotate(0)"></text></g><g id="SvgjsG1615"><text id="SvgjsText1616" font-family="微软雅黑" text-anchor="start" font-size="12px" width="106px" fill="#323232" font-weight="400" align="middle" lineHeight="125%" anchor="start" family="微软雅黑" size="12px" weight="400" font-style="" opacity="1" y="65" transform="rotate(0)"></text></g></g><g id="SvgjsG1617"><path id="SvgjsPath1618" d="M172.80821235363032 290.7928319637763L266.84460089780447 96.35578672785596" stroke="#323232" stroke-width="2" fill="none" marker-end="url(#SvgjsMarker1619)"></path></g><g id="SvgjsG1621"><path id="SvgjsPath1622" d="M171.97823626695748 290.77421661631195L88.50455307115044 96.39301742278457" stroke="#323232" stroke-width="2" fill="none" marker-end="url(#SvgjsMarker1623)"></path></g><g id="SvgjsG1625"><path id="SvgjsPath1626" d="M173.26645437625797 291.2442706997414L563.1137580803023 95.4529092559257" stroke="#000000" stroke-width="2" fill="none" marker-end="url(#SvgjsMarker1627)"></path></g><g id="SvgjsG1629" transform="translate(457.67089811960955,433.78131771666506)"><path id="SvgjsPath1630" d="M 0 4Q 0 0 4 0L 210.46024060249306 0Q 214.46024060249306 0 214.46024060249306 4L 214.46024060249306 102.57805728333506Q 214.46024060249306 106.57805728333506 210.46024060249306 106.57805728333506L 4 106.57805728333506Q 0 106.57805728333506 0 102.57805728333506Z" stroke="rgba(50,50,50,1)" stroke-width="2" fill="url(#SvgjsLinearGradient1631)"></path><path id="SvgjsPath1634" d="M 0 50L 214.46024060249306 50M 0 80L 214.46024060249306 80" stroke="rgba(50,50,50,1)" stroke-width="2" fill="none"></path><path id="SvgjsPath1635" d="M 0 0L 214.46024060249306 0L 214.46024060249306 106.57805728333506L 0 106.57805728333506Z" stroke="none" fill="none"></path><g id="SvgjsG1636"><text id="SvgjsText1637" font-family="微软雅黑" text-anchor="middle" font-size="12px" width="195px" fill="#323232" font-weight="700" align="middle" lineHeight="125%" anchor="middle" family="微软雅黑" size="12px" weight="700" font-style="" opacity="1" y="15" transform="rotate(0)"><tspan id="SvgjsTspan1638" dy="15" x="107.5"><tspan id="SvgjsTspan1639" style="text-decoration:;">DocxManagerExtJieXi</tspan></tspan></text></g><g id="SvgjsG1640"><text id="SvgjsText1641" font-family="微软雅黑" text-anchor="start" font-size="12px" width="195px" fill="#323232" font-weight="400" align="middle" lineHeight="125%" anchor="start" family="微软雅黑" size="12px" weight="400" font-style="" opacity="1" y="55" transform="rotate(0)"></text></g><g id="SvgjsG1642"><text id="SvgjsText1643" font-family="微软雅黑" text-anchor="start" font-size="12px" width="195px" fill="#323232" font-weight="400" align="middle" lineHeight="125%" anchor="start" family="微软雅黑" size="12px" weight="400" font-style="" opacity="1" y="85" transform="rotate(0)"></text></g></g><g id="SvgjsG1644"><path id="SvgjsPath1645" d="M564.9010184208561 432.78131771666506L564.901018420856 98.15530105905822" stroke="#000000" stroke-width="2" fill="none" marker-end="url(#SvgjsMarker1646)"></path></g><g id="SvgjsG1648" transform="translate(97.3072916666668,437.7058873086188)"><path id="SvgjsPath1649" d="M 0 4Q 0 0 4 0L 146.13106507862915 0Q 150.13106507862915 0 150.13106507862915 4L 150.13106507862915 98.65348769138132Q 150.13106507862915 102.65348769138132 146.13106507862915 102.65348769138132L 4 102.65348769138132Q 0 102.65348769138132 0 98.65348769138132Z" stroke="rgba(50,50,50,1)" stroke-width="2" fill="url(#SvgjsLinearGradient1650)"></path><path id="SvgjsPath1653" d="M 0 50L 150.13106507862915 50M 0 80L 150.13106507862915 80" stroke="rgba(50,50,50,1)" stroke-width="2" fill="none"></path><path id="SvgjsPath1654" d="M 0 0L 150.13106507862915 0L 150.13106507862915 102.65348769138132L 0 102.65348769138132Z" stroke="none" fill="none"></path><g id="SvgjsG1655"><text id="SvgjsText1656" font-family="微软雅黑" text-anchor="middle" font-size="12px" width="131px" fill="#323232" font-weight="700" align="middle" lineHeight="125%" anchor="middle" family="微软雅黑" size="12px" weight="700" font-style="" opacity="1" y="15" transform="rotate(0)"><tspan id="SvgjsTspan1657" dy="15" x="75.5"><tspan id="SvgjsTspan1658" style="text-decoration:;">ManagerExtJieXi</tspan></tspan></text></g><g id="SvgjsG1659"><text id="SvgjsText1660" font-family="微软雅黑" text-anchor="start" font-size="12px" width="131px" fill="#323232" font-weight="400" align="middle" lineHeight="125%" anchor="start" family="微软雅黑" size="12px" weight="400" font-style="" opacity="1" y="55" transform="rotate(0)"></text></g><g id="SvgjsG1661"><text id="SvgjsText1662" font-family="微软雅黑" text-anchor="start" font-size="12px" width="131px" fill="#323232" font-weight="400" align="middle" lineHeight="125%" anchor="start" family="微软雅黑" size="12px" weight="400" font-style="" opacity="1" y="85" transform="rotate(0)"></text></g></g><g id="SvgjsG1663"><path id="SvgjsPath1664" d="M172.37282420598126 436.7058873086188L172.37282420598115 364.8384069782784" stroke="#323232" stroke-width="2" fill="none" marker-end="url(#SvgjsMarker1665)"></path></g><g id="SvgjsG1667"><path id="SvgjsPath1668" d="M248.43831318750688 489.023297683333L455.67098523518735 487.08901330028516" stroke="#323232" stroke-width="2" fill="none" marker-end="url(#SvgjsMarker1669)"></path></g><g id="SvgjsG1671" transform="translate(441.2905068482336,591.6930747981756)"><path id="SvgjsPath1672" d="M 0 4Q 0 0 4 0L 243.221023145245 0Q 247.221023145245 0 247.221023145245 4L 247.221023145245 86Q 247.221023145245 90 243.221023145245 90L 4 90Q 0 90 0 86Z" stroke="rgba(50,50,50,1)" stroke-width="2" fill="url(#SvgjsLinearGradient1673)"></path><path id="SvgjsPath1676" d="M 0 30L 247.221023145245 30M 0 60L 247.221023145245 60" stroke="rgba(50,50,50,1)" stroke-width="2" fill="none"></path><path id="SvgjsPath1677" d="M 0 0L 247.221023145245 0L 247.221023145245 90L 0 90Z" stroke="none" fill="none"></path><g id="SvgjsG1678"><text id="SvgjsText1679" font-family="微软雅黑" text-anchor="middle" font-size="12px" width="228px" fill="#323232" font-weight="700" align="middle" lineHeight="125%" anchor="middle" family="微软雅黑" size="12px" weight="700" font-style="" opacity="1" y="5" transform="rotate(0)"><tspan id="SvgjsTspan1680" dy="15" x="124"><tspan id="SvgjsTspan1681" style="text-decoration:;">DocxManagerExtJieXiExtBsInfo</tspan></tspan></text></g><g id="SvgjsG1682"><text id="SvgjsText1683" font-family="微软雅黑" text-anchor="start" font-size="12px" width="228px" fill="#323232" font-weight="400" align="middle" lineHeight="125%" anchor="start" family="微软雅黑" size="12px" weight="400" font-style="" opacity="1" y="35" transform="rotate(0)"></text></g><g id="SvgjsG1684"><text id="SvgjsText1685" font-family="微软雅黑" text-anchor="start" font-size="12px" width="228px" fill="#323232" font-weight="400" align="middle" lineHeight="125%" anchor="start" family="微软雅黑" size="12px" weight="400" font-style="" opacity="1" y="65" transform="rotate(0)"></text></g></g><g id="SvgjsG1686"><path id="SvgjsPath1687" d="M564.901018420856 590.6930747981756L564.9010184208561 543.9593750000001" stroke="#323232" stroke-width="2" fill="none" marker-end="url(#SvgjsMarker1688)"></path></g><g id="SvgjsG1690" transform="translate(99.32030297059094,591.6930747981756)"><path id="SvgjsPath1691" d="M 0 4Q 0 0 4 0L 142.10504247078072 0Q 146.10504247078072 0 146.10504247078072 4L 146.10504247078072 86Q 146.10504247078072 90 142.10504247078072 90L 4 90Q 0 90 0 86Z" stroke="rgba(50,50,50,1)" stroke-width="2" fill="url(#SvgjsLinearGradient1692)"></path><path id="SvgjsPath1695" d="M 0 30L 146.10504247078072 30M 0 60L 146.10504247078072 60" stroke="rgba(50,50,50,1)" stroke-width="2" fill="none"></path><path id="SvgjsPath1696" d="M 0 0L 146.10504247078072 0L 146.10504247078072 90L 0 90Z" stroke="none" fill="none"></path><g id="SvgjsG1697"><text id="SvgjsText1698" font-family="微软雅黑" text-anchor="middle" font-size="12px" width="127px" fill="#323232" font-weight="700" align="middle" lineHeight="125%" anchor="middle" family="微软雅黑" size="12px" weight="700" font-style="" opacity="1" y="-2.5" transform="rotate(0)"><tspan id="SvgjsTspan1699" dy="15" x="73.5"><tspan id="SvgjsTspan1700" style="text-decoration:;">ManagerExtJieXiExt</tspan></tspan><tspan id="SvgjsTspan1701" dy="15" x="73.5"><tspan id="SvgjsTspan1702" style="text-decoration:;">BsInfo</tspan></tspan></text></g><g id="SvgjsG1703"><text id="SvgjsText1704" font-family="微软雅黑" text-anchor="start" font-size="12px" width="127px" fill="#323232" font-weight="400" align="middle" lineHeight="125%" anchor="start" family="微软雅黑" size="12px" weight="400" font-style="" opacity="1" y="35" transform="rotate(0)"></text></g><g id="SvgjsG1705"><text id="SvgjsText1706" font-family="微软雅黑" text-anchor="start" font-size="12px" width="127px" fill="#323232" font-weight="400" align="middle" lineHeight="125%" anchor="start" family="微软雅黑" size="12px" weight="400" font-style="" opacity="1" y="65" transform="rotate(0)"></text></g></g><g id="SvgjsG1707"><path id="SvgjsPath1708" d="M172.37282420598103 590.6930747981756L172.37282420598115 543.9593750000001" stroke="#323232" stroke-width="2" fill="none" marker-end="url(#SvgjsMarker1709)"></path></g><g id="SvgjsG1711"><path id="SvgjsPath1712" d="M246.42534544137152 636.6930747981756L439.2905068482336 636.6930747981756" stroke="#323232" stroke-width="2" fill="none" marker-end="url(#SvgjsMarker1713)"></path></g><g id="SvgjsG1715" transform="translate(441.2905068482336,733.0267745963512)"><path id="SvgjsPath1716" d="M 0 4Q 0 0 4 0L 243.221023145245 0Q 247.221023145245 0 247.221023145245 4L 247.221023145245 86Q 247.221023145245 90 243.221023145245 90L 4 90Q 0 90 0 86Z" stroke="rgba(50,50,50,1)" stroke-width="2" fill="url(#SvgjsLinearGradient1717)"></path><path id="SvgjsPath1720" d="M 0 30L 247.221023145245 30M 0 60L 247.221023145245 60" stroke="rgba(50,50,50,1)" stroke-width="2" fill="none"></path><path id="SvgjsPath1721" d="M 0 0L 247.221023145245 0L 247.221023145245 90L 0 90Z" stroke="none" fill="none"></path><g id="SvgjsG1722"><text id="SvgjsText1723" font-family="微软雅黑" text-anchor="middle" font-size="12px" width="228px" fill="#323232" font-weight="700" align="middle" lineHeight="125%" anchor="middle" family="微软雅黑" size="12px" weight="700" font-style="" opacity="1" y="-2.5" transform="rotate(0)"><tspan id="SvgjsTspan1724" dy="15" x="124"><tspan id="SvgjsTspan1725" style="text-decoration:;">DocxManagerExtJieXiExtBsInfoExtXL</tspan></tspan><tspan id="SvgjsTspan1726" dy="15" x="124"><tspan id="SvgjsTspan1727" style="text-decoration:;">SInfo</tspan></tspan></text></g><g id="SvgjsG1728"><text id="SvgjsText1729" font-family="微软雅黑" text-anchor="start" font-size="12px" width="228px" fill="#323232" font-weight="400" align="middle" lineHeight="125%" anchor="start" family="微软雅黑" size="12px" weight="400" font-style="" opacity="1" y="35" transform="rotate(0)"></text></g><g id="SvgjsG1730"><text id="SvgjsText1731" font-family="微软雅黑" text-anchor="start" font-size="12px" width="228px" fill="#323232" font-weight="400" align="middle" lineHeight="125%" anchor="start" family="微软雅黑" size="12px" weight="400" font-style="" opacity="1" y="65" transform="rotate(0)"></text></g></g><g id="SvgjsG1732"><path id="SvgjsPath1733" d="M564.9010184208561 732.0267745963512L564.9010184208561 685.2930747981757" stroke="#323232" stroke-width="2" fill="none" marker-end="url(#SvgjsMarker1734)"></path></g><g id="SvgjsG1736" transform="translate(99.32030297059094,733.0267745963512)"><path id="SvgjsPath1737" d="M 0 4Q 0 0 4 0L 142.10504247078072 0Q 146.10504247078072 0 146.10504247078072 4L 146.10504247078072 86Q 146.10504247078072 90 142.10504247078072 90L 4 90Q 0 90 0 86Z" stroke="rgba(50,50,50,1)" stroke-width="2" fill="url(#SvgjsLinearGradient1738)"></path><path id="SvgjsPath1741" d="M 0 30L 146.10504247078072 30M 0 60L 146.10504247078072 60" stroke="rgba(50,50,50,1)" stroke-width="2" fill="none"></path><path id="SvgjsPath1742" d="M 0 0L 146.10504247078072 0L 146.10504247078072 90L 0 90Z" stroke="none" fill="none"></path><g id="SvgjsG1743"><text id="SvgjsText1744" font-family="微软雅黑" text-anchor="middle" font-size="12px" width="127px" fill="#323232" font-weight="700" align="middle" lineHeight="125%" anchor="middle" family="微软雅黑" size="12px" weight="700" font-style="" opacity="1" y="-2.5" transform="rotate(0)"><tspan id="SvgjsTspan1745" dy="15" x="73.5"><tspan id="SvgjsTspan1746" style="text-decoration:;">ManagerExtJieXiExt</tspan></tspan><tspan id="SvgjsTspan1747" dy="15" x="73.5"><tspan id="SvgjsTspan1748" style="text-decoration:;">BsInfoExtXLSInfo</tspan></tspan></text></g><g id="SvgjsG1749"><text id="SvgjsText1750" font-family="微软雅黑" text-anchor="start" font-size="12px" width="127px" fill="#323232" font-weight="400" align="middle" lineHeight="125%" anchor="start" family="微软雅黑" size="12px" weight="400" font-style="" opacity="1" y="35" transform="rotate(0)"></text></g><g id="SvgjsG1751"><text id="SvgjsText1752" font-family="微软雅黑" text-anchor="start" font-size="12px" width="127px" fill="#323232" font-weight="400" align="middle" lineHeight="125%" anchor="start" family="微软雅黑" size="12px" weight="400" font-style="" opacity="1" y="65" transform="rotate(0)"></text></g></g><g id="SvgjsG1753"><path id="SvgjsPath1754" d="M246.42534544137152 778.0267745963513L343.35792614480226 778.0267745963513L343.35792614480226 778.0267745963513L439.2905068482336 778.0267745963513" stroke="#323232" stroke-width="2" fill="none" marker-end="url(#SvgjsMarker1755)"></path></g><g id="SvgjsG1757"><path id="SvgjsPath1758" d="M172.37282420598115 732.0267745963512L172.37282420598115 707.3599246972631L172.37282420598115 707.3599246972631L172.37282420598115 685.2930747981757" stroke="#323232" stroke-width="2" fill="none" marker-end="url(#SvgjsMarker1759)"></path></g><g id="SvgjsG1761" transform="translate(754.2905068482337,733.0267745963512)"><path id="SvgjsPath1762" d="M 0 4Q 0 0 4 0L 243.221023145245 0Q 247.221023145245 0 247.221023145245 4L 247.221023145245 86Q 247.221023145245 90 243.221023145245 90L 4 90Q 0 90 0 86Z" stroke="rgba(50,50,50,1)" stroke-width="2" fill="url(#SvgjsLinearGradient1763)"></path><path id="SvgjsPath1766" d="M 0 30L 247.221023145245 30M 0 60L 247.221023145245 60" stroke="rgba(50,50,50,1)" stroke-width="2" fill="none"></path><path id="SvgjsPath1767" d="M 0 0L 247.221023145245 0L 247.221023145245 90L 0 90Z" stroke="none" fill="none"></path><g id="SvgjsG1768"><text id="SvgjsText1769" font-family="微软雅黑" text-anchor="middle" font-size="12px" width="228px" fill="#323232" font-weight="700" align="middle" lineHeight="125%" anchor="middle" family="微软雅黑" size="12px" weight="700" font-style="" opacity="1" y="5" transform="rotate(0)"><tspan id="SvgjsTspan1770" dy="15" x="124"><tspan id="SvgjsTspan1771" style="text-decoration:;">XLS2XLSX</tspan></tspan></text></g><g id="SvgjsG1772"><text id="SvgjsText1773" font-family="微软雅黑" text-anchor="start" font-size="12px" width="228px" fill="#323232" font-weight="400" align="middle" lineHeight="125%" anchor="start" family="微软雅黑" size="12px" weight="400" font-style="" opacity="1" y="35" transform="rotate(0)"></text></g><g id="SvgjsG1774"><text id="SvgjsText1775" font-family="微软雅黑" text-anchor="start" font-size="12px" width="228px" fill="#323232" font-weight="400" align="middle" lineHeight="125%" anchor="start" family="微软雅黑" size="12px" weight="400" font-style="" opacity="1" y="65" transform="rotate(0)"></text></g></g><g id="SvgjsG1776"><path id="SvgjsPath1777" d="M689.5115299934787 778.0267745963513L721.4010184208561 778.0267745963513L721.4010184208561 778.0267745963513L752.2905068482337 778.0267745963513" stroke="#323232" stroke-width="2" fill="none" marker-end="url(#SvgjsMarker1778)"></path></g></svg>